# xmcd
#
# Track frame offsets: 
#        150
#        17572
#        33985
#        49565
#        69937
#        85255
#        100430
#        113760
#        135502
#        149557
#        167162
#
# Disc length: 2431 seconds
#
# Revision: 2
# Processed by: cddbd v1.5.2PL0 Copyright (c) Steve Scherf et al.
# Submitted via: ExactAudioCopy v0.99pb4
#
DISCID=8d097d0b
DTITLE=Tuxedo Cowboy - Woman of the Heart - Audioquest 1991
DYEAR=1991
DGENRE=Blues
TTITLE0=Sad Moon Blues
TTITLE1=It Took More Love
TTITLE2=Black Haired Beauty
TTITLE3=I Am Homeless
TTITLE4=Cold Hearted Blue
TTITLE5=Something's gonna Happen to Me
TTITLE6=Mokoshika Dance
TTITLE7=He Loved Her Then
TTITLE8=Daddy's Girl
TTITLE9=Debra Anne
TTITLE10=Woman of the Heart
EXTD=
EXTT0=
EXTT1=
EXTT2=
EXTT3=
EXTT4=
EXTT5=
EXTT6=
EXTT7=
EXTT8=
EXTT9=
EXTT10=
PLAYORDER=
